<?xml version="1.0" standalone="no"?><svg xmlns="http://www.w3.org/2000/svg" viewBox="0 0 1440 320"><path fill="#a2d9ff" fill-opacity="1" d="M0,224L26.7,208C53.3,192,107,160,160,138.7C213.3,117,267,107,320,122.7C373.3,139,427,181,480,165.3C533.3,149,587,75,640,90.7C693.3,107,747,213,800,261.3C853.3,309,907,299,960,266.7C1013.3,235,1067,181,1120,165.3C1173.3,149,1227,171,1280,160C1333.3,149,1387,107,1413,85.3L1440,64L1440,320L1413.3,320C1386.7,320,1333,320,1280,320C1226.7,320,1173,320,1120,320C1066.7,320,1013,320,960,320C906.7,320,853,320,800,320C746.7,320,693,320,640,320C586.7,320,533,320,480,320C426.7,320,373,320,320,320C266.7,320,213,320,160,320C106.7,320,53,320,27,320L0,320Z"></path></svg>